{"title":"Bank Chor 2017 Hindi 1CD DvDScr x264 AAC { TaRa }","magnet":"magnet:?xt=urn:btih:c8ba95919fe860a35781378e176c70994cda0345&dn=Bank+Chor+2017+Hindi+1CD+DvDScr+x264+AAC+%7B+TaRa+%7D&tr=udp%3A%2F%2Ftracker.leechers-paradise.org%3A6969&tr=udp%3A%2F%2Fzer0day.ch%3A1337&tr=udp%3A%2F%2Fopen.demonii.com%3A1337&tr=udp%3A%2F%2Ftracker.coppersurfer.tk%3A6969&tr=udp%3A%2F%2Fexodus.desync.com%3A6969","uploader":"SkTaRa","categoryP":"video","categoryS":"movies","size":"771709534","seeders":"37","leechers":"54","description":"===================================================================\r\nGeneral\r\nComplete name               : Bank Chor 2017 Hindi 1CD DvDScr x264 AAC { TaRa }.mkv\r\nFormat                      : Matroska\r\nFormat version              : Version 4 / Version 2\r\nFile size                   : 736 MiB\r\nDuration                    : 1h 54mn\r\nOverall bit rate            : 897 Kbps\r\n===================================================================\r\nVideo\r\nID                          : 1\r\nFormat                      : AVC\r\nFormat/Info                 : Advanced Video Codec\r\nFormat profile              : <a class=\"__cf_email__\" href=\"/cdn-cgi/l/email-protection\" data-cfemail=\"f2ba9b959ab2bec1dcc3\">[email&#xA0;protected]</a><script data-cfhash=\"f9e31\" type=\"text/javascript\">/* <![CDATA[ */!function(t,e,r,n,c,a,p){try{t=document.currentScript||function(){for(t=document.getElementsByTagName('script'),e=t.length;e--;)if(t[e].getAttribute('data-cfhash'))return t[e]}();if(t&&(c=t.previousSibling)){p=t.parentNode;if(a=c.getAttribute('data-cfemail')){for(e='',r='0x'+a.substr(0,2)|0,n=2;a.length-n;n+=2)e+='%'+('0'+('0x'+a.substr(n,2)^r).toString(16)).slice(-2);p.replaceChild(document.createTextNode(decodeURIComponent(e)),c)}p.removeChild(t)}}catch(u){}}()/* ]]> */</script>\r\nFormat settings, CABAC      : Yes\r\nFormat settings, ReFrames   : 8 frames\r\nCodec ID                    : V_MPEG4/ISO/AVC\r\nDuration                    : 1h 54mn\r\nBit rate                    : 769 Kbps\r\nWidth                       : 640 pixels\r\nHeight                      : 272 pixels\r\nDisplay aspect ratio        : 2.35:1\r\nFrame rate mode             : Constant\r\nFrame rate                  : 25.000 fps\r\nColor space                 : YUV\r\nChroma subsampling          : 4:2:0\r\nBit depth                   : 8 bits\r\nScan type                   : Progressive\r\nBits/(Pixel*Frame)          : 0.177\r\nStream size                 : 631 MiB (86%)\r\nTitle                       : .....::::: TaRa :::::.....\r\nLanguage                    : Hindi\r\nDefault                     : Yes\r\nForced                      : No\r\n===================================================================\r\nAudio\r\nID                          : 2\r\nFormat                      : AAC\r\nFormat/Info                 : Advanced Audio Codec\r\nFormat profile              : LC\r\nCodec ID                    : A_AAC\r\nDuration                    : 1h 54mn\r\nBit rate                    : 126 Kbps\r\nChannel(s)                  : 2 channels\r\nChannel positions           : Front: L R\r\nSampling rate               : 44.1 KHz\r\nFrame rate                  : 43.066 fps (1024 spf)\r\nCompression mode            : Lossy\r\nStream size                 : 103 MiB (14%)\r\nTitle                       : .....::::: TaRa :::::.....\r\nLanguage                    : Hindi\r\nDefault                     : Yes\r\nForced                      : No\r\n=================================================================== <a href=\"\nhttps://www.jiopic.com/image/Y1NQr\" rel=\"nofollow\" target=\"_NEW\">\nhttps://www.jiopic.com/image/Y1NQr</a> <a href=\"\nhttps://www.jiopic.com/image/Yxax7\" rel=\"nofollow\" target=\"_NEW\">\nhttps://www.jiopic.com/image/Yxax7</a> <a href=\"\nhttps://www.jiopic.com/image/YxrRS\" rel=\"nofollow\" target=\"_NEW\">\nhttps://www.jiopic.com/image/YxrRS</a> <a href=\"\nhttps://www.jiopic.com/image/Yx96e\" rel=\"nofollow\" target=\"_NEW\">\nhttps://www.jiopic.com/image/Yx96e</a> <a href=\"\nhttps://www.jiopic.com/image/YxbQ2\" rel=\"nofollow\" target=\"_NEW\">\nhttps://www.jiopic.com/image/YxbQ2</a> <a href=\"\nhttps://www.jiopic.com/image/Yxp5E\" rel=\"nofollow\" target=\"_NEW\">\nhttps://www.jiopic.com/image/Yxp5E</a> <a href=\"\nhttps://www.jiopic.com/image/Yxwn4\" rel=\"nofollow\" target=\"_NEW\">\nhttps://www.jiopic.com/image/Yxwn4</a> <a href=\"\nhttps://www.jiopic.com/image/Y1YVF\" rel=\"nofollow\" target=\"_NEW\">\nhttps://www.jiopic.com/image/Y1YVF</a> <a href=\"\nhttps://www.jiopic.com/image/Y1Xki\" rel=\"nofollow\" target=\"_NEW\">\nhttps://www.jiopic.com/image/Y1Xki</a> <a href=\"\nhttps://www.jiopic.com/image/Y1k4t\" rel=\"nofollow\" target=\"_NEW\">\nhttps://www.jiopic.com/image/Y1k4t</a> <a href=\"\nhttps://www.jiopic.com/image/Y1j5v\" rel=\"nofollow\" target=\"_NEW\">\nhttps://www.jiopic.com/image/Y1j5v</a> <a href=\"\nhttps://www.jiopic.com/image/Y1Saz\" rel=\"nofollow\" target=\"_NEW\">\nhttps://www.jiopic.com/image/Y1Saz</a> <a href=\"\nhttps://www.jiopic.com/image/Y1sRD\" rel=\"nofollow\" target=\"_NEW\">\nhttps://www.jiopic.com/image/Y1sRD</a> <a href=\"\nhttps://www.jiopic.com/image/Y13l1\" rel=\"nofollow\" target=\"_NEW\">\nhttps://www.jiopic.com/image/Y13l1</a> <a href=\"\nhttps://www.jiopic.com/image/Y18QQ\" rel=\"nofollow\" target=\"_NEW\">\nhttps://www.jiopic.com/image/Y18QQ</a> <a href=\"\nhttps://www.jiopic.com/image/Y1Luj\" rel=\"nofollow\" target=\"_NEW\">\nhttps://www.jiopic.com/image/Y1Luj</a> <a href=\"\nhttps://www.jiopic.com/image/Y1zkn\" rel=\"nofollow\" target=\"_NEW\">\nhttps://www.jiopic.com/image/Y1zkn</a> <a href=\"\nhttps://www.jiopic.com/image/Y157N\" rel=\"nofollow\" target=\"_NEW\">\nhttps://www.jiopic.com/image/Y157N</a> <a href=\"\nhttps://www.jiopic.com/image/Y1BCY\" rel=\"nofollow\" target=\"_NEW\">\nhttps://www.jiopic.com/image/Y1BCY</a> <a href=\"\nhttps://www.jiopic.com/image/Y1qBA\" rel=\"nofollow\" target=\"_NEW\">\nhttps://www.jiopic.com/image/Y1qBA</a> <a href=\"\nhttps://www.jiopic.com/image/Y1ARb\" rel=\"nofollow\" target=\"_NEW\">\nhttps://www.jiopic.com/image/Y1ARb</a> <a href=\"\nhttps://www.jiopic.com/image/Y1gaG\" rel=\"nofollow\" target=\"_NEW\">\nhttps://www.jiopic.com/image/Y1gaG</a> <a href=\"\nhttps://www.jiopic.com/image/Y1VlP\" rel=\"nofollow\" target=\"_NEW\">\nhttps://www.jiopic.com/image/Y1VlP</a> <a href=\"\nhttps://www.jiopic.com/image/Y1M1B\" rel=\"nofollow\" target=\"_NEW\">\nhttps://www.jiopic.com/image/Y1M1B</a>","last_updated":"2017-06-17T12:03:00.216Z","parsed":{"xt":"urn:btih:c8ba95919fe860a35781378e176c70994cda0345","dn":"Bank Chor 2017 Hindi 1CD DvDScr x264 AAC { TaRa }","tr":["udp://exodus.desync.com:6969","udp://open.demonii.com:1337","udp://tracker.coppersurfer.tk:6969","udp://tracker.leechers-paradise.org:6969","udp://zer0day.ch:1337"],"infoHash":"c8ba95919fe860a35781378e176c70994cda0345","infoHashBuffer":{"type":"Buffer","data":[200,186,149,145,159,232,96,163,87,129,55,142,23,108,112,153,76,218,3,69]},"name":"Bank Chor 2017 Hindi 1CD DvDScr x264 AAC { TaRa }","announce":["udp://exodus.desync.com:6969","udp://open.demonii.com:1337","udp://tracker.coppersurfer.tk:6969","udp://tracker.leechers-paradise.org:6969","udp://zer0day.ch:1337"],"urlList":[]}}